<?xml version="1.0" standalone="no"?><!DOCTYPE svg PUBLIC "-//W3C//DTD SVG 1.1//EN" "http://www.w3.org/Graphics/SVG/1.1/DTD/svg11.dtd"><svg t="1608801892590" class="icon" viewBox="0 0 1197 1024" version="1.1" xmlns="http://www.w3.org/2000/svg" p-id="2222" xmlns:xlink="http://www.w3.org/1999/xlink" width="233.7890625" height="200"><defs><style type="text/css"></style></defs><path d="M709.934977 768.630874c-14.181515 3.680097-27.622082 6.236449-40.324986 7.670701 12.980555 27.891517 21.710927 51.125412 26.191116 69.701685 4.629693 18.835851-4.245254 34.714482-26.619912 47.632606L476.769647 1004.723852c-22.637522 13.069271-40.863857 7.6362-54.685577-16.302499l-65.571434-113.573693 233.390407-134.749034 13.746146 23.80891 32.784074-18.927854L531.428938 563.105698l-314.181669 181.392615 16.675437 28.882186 281.395952-162.466404 57.91059 100.303988-233.393693 134.749034-30.870095-53.469831-33.566095 19.378008 115.831038 200.624405 147.780519 0 156.510891-90.361156c35.905585-20.730115 49.273864-48.051546 40.104838-81.957721C730.479444 821.645621 721.915006 797.795639 709.934977 768.630874L709.934977 768.630874z" p-id="2223" fill="#707070"></path><path d="M784.811798 687.412458l302.863729-174.8588-13.971224-24.196635-146.357767 84.499288-16.675437-28.882186 126.452388-73.007201-13.969581-24.198278-126.452388 73.008843-16.225283-28.101808 126.454031-73.007201-13.969581-24.196635-126.452388 73.007201-16.225283-28.100166 138.552348-79.994455-13.969581-24.196635-142.845246 82.470306 9.64711-17.53796c-16.918587-8.272003-35.384785-16.517719-55.393667-24.740435l-16.414216 29.251839c16.315642 7.232047 31.571614 14.731886 45.767915 22.491304l-118.646969 68.500725c0.483013-16.583435 0.463298-33.743528-0.06243-51.481922l-33.958748 6.075445c4.920486 59.60442-1.560755 118.683113-19.445367 177.229505 11.832167 4.271541 22.676952 8.937377 32.537639 13.995867 4.72991-17.646391 8.822374-35.793867 12.279036-54.444071l76.386646 132.309327 28.882186-16.675437L784.811798 687.412458 784.811798 687.412458zM695.130803 532.077884l0.208648-3.243085 126.063021-72.783766 16.22364 28.101808-127.623776 73.682433L695.130803 532.077884 695.130803 532.077884zM723.971917 582.035194l127.625419-73.684075 16.22364 28.100166-127.623776 73.684075L723.971917 582.035194 723.971917 582.035194zM754.16678 634.333637l127.625419-73.682433 16.673794 28.880543-127.623776 73.684075L754.16678 634.333637 754.16678 634.333637z" p-id="2224" fill="#707070"></path><path d="M774.287379 734.079039l72.558689 125.673653 28.880543-16.675437-11.492087-19.905379 237.293938-137.00145 11.492087 19.905379 28.882186-16.675437-72.558689-125.67201L774.287379 734.079039 774.287379 734.079039zM849.811503 798.194863l-32.222202-55.812607 237.293938-137.00145 32.222202 55.810964L849.811503 798.194863 849.811503 798.194863z" p-id="2225" fill="#707070"></path><path d="M348.10263 101.774384C29.076048 285.964857-82.08751 691.915647 96.89497 1012.498055l78.436986 0c-5.260567-8.186572-10.360129-16.532505-15.277329-25.0493C-7.202475 697.751229 92.054986 327.315013 381.752512 160.056269 658.339695 0.369653 1008.514022 83.623622 1185.206299 343.601083l0-108.976858C977.21513 2.763358 628.601558-60.172864 348.10263 101.774384L348.10263 101.774384z" p-id="2226" fill="#707070"></path></svg>