<?xml version="1.0" standalone="no"?><!DOCTYPE svg PUBLIC "-//W3C//DTD SVG 1.1//EN" "http://www.w3.org/Graphics/SVG/1.1/DTD/svg11.dtd"><svg t="1609127419722" class="icon" viewBox="0 0 1024 1024" version="1.1" xmlns="http://www.w3.org/2000/svg" p-id="1940" xmlns:xlink="http://www.w3.org/1999/xlink" width="200" height="200"><defs><style type="text/css"></style></defs><path d="M514.048 902.656c-73.728 0-146.944-20.48-211.968-61.952-13.824-8.704-17.92-26.624-9.216-40.448 8.704-13.824 26.624-17.92 40.448-9.216 106.496 67.584 240.128 70.144 349.184 7.168 109.056-62.976 173.568-180.224 168.448-306.176-0.512-16.384 11.776-29.696 28.16-30.72 16.384-0.512 29.696 11.776 30.72 28.16 6.144 147.968-69.632 285.184-197.632 359.424C650.24 884.736 582.144 902.656 514.048 902.656z" p-id="1941" fill="#1296db"></path><path d="M147.968 551.424c-15.872 0-28.672-12.288-29.184-28.16C112.64 375.808 188.416 238.08 316.416 164.352c128-73.728 284.672-70.656 409.6 8.192 13.824 8.704 17.92 26.624 9.216 40.448-8.704 13.824-26.624 17.92-40.448 9.216C588.288 155.136 454.656 152.064 345.6 215.04c-109.056 62.976-173.568 180.224-168.448 305.664 0.512 16.384-11.776 29.696-28.16 30.208C148.992 551.424 148.48 551.424 147.968 551.424z" p-id="1942" fill="#1296db"></path><path d="M506.88 757.76c-20.992 0-41.984-2.56-62.976-7.68-15.872-4.096-25.6-19.456-21.504-35.328 4.096-15.872 19.968-25.088 35.328-21.504 51.712 12.8 104.96 5.12 151.04-21.504 46.08-26.624 79.36-69.12 94.208-120.32 4.608-15.36 20.992-24.576 36.352-19.968 15.36 4.608 24.576 20.992 19.968 36.352-18.944 65.536-61.952 120.32-121.344 154.624C598.016 745.984 552.96 757.76 506.88 757.76z" p-id="1943" fill="#1296db"></path><path d="M296.448 482.816c-2.56 0-5.632-0.512-8.192-1.024-15.36-4.608-24.576-20.992-19.968-36.352 18.944-65.024 62.464-119.808 121.344-154.112 58.88-33.792 127.488-44.032 193.536-28.16 15.872 3.584 25.6 19.456 21.504 35.328-3.584 15.872-19.456 25.6-35.328 21.504-51.2-12.288-104.96-4.608-150.528 22.016-46.08 26.624-79.36 69.12-94.208 119.808C321.024 474.624 309.248 482.816 296.448 482.816z" p-id="1944" fill="#1296db"></path><path d="M370.688 287.744c-10.24 0-19.968-5.12-25.6-14.848L337.92 260.096c-8.192-13.824-3.072-31.744 10.752-39.936 13.824-8.192 31.744-3.072 39.936 10.752l7.168 12.8c8.192 13.824 3.072 31.744-10.752 39.936C380.416 286.208 375.296 287.744 370.688 287.744z" p-id="1945" fill="#1296db"></path><path d="M268.288 392.192c-5.12 0-10.24-1.024-14.848-4.096l-14.848-8.704c-13.824-8.192-18.944-26.112-10.752-39.936 8.192-13.824 26.112-18.944 39.936-10.752l14.848 8.704c13.824 8.192 18.944 26.112 10.752 39.936C288.256 387.072 278.016 392.192 268.288 392.192z" p-id="1946" fill="#1296db"></path><path d="M512 251.392c-16.384 0-29.184-13.312-29.184-29.184L482.816 204.8c0-16.384 13.312-29.184 29.184-29.184s29.184 13.312 29.184 29.184l0 16.896C541.696 238.08 528.384 251.392 512 251.392z" p-id="1947" fill="#1296db"></path><path d="M664.576 797.184c-10.24 0-19.968-5.12-25.6-14.848l-7.168-12.8c-8.192-13.824-3.072-31.744 10.752-39.936 13.824-8.192 31.744-3.072 39.936 10.752l7.168 12.8c8.192 13.824 3.072 31.744-10.752 39.936C674.816 795.648 669.696 797.184 664.576 797.184z" p-id="1948" fill="#1296db"></path><path d="M776.192 691.2c-5.12 0-10.24-1.024-14.848-4.096l-14.848-8.704c-13.824-8.192-18.944-26.112-10.752-39.936 8.192-13.824 26.112-18.944 39.936-10.752l14.848 8.704c13.824 8.192 18.944 26.112 10.752 39.936C796.16 686.08 785.92 691.2 776.192 691.2z" p-id="1949" fill="#1296db"></path><path d="M517.12 840.704c-16.384 0-29.184-13.312-29.184-29.184l0-16.896c0-16.384 13.312-29.184 29.184-29.184s29.184 13.312 29.184 29.184l0 16.896C546.816 827.392 533.504 840.704 517.12 840.704z" p-id="1950" fill="#1296db"></path><path d="M110.592 633.856c-10.24 0-19.968-5.12-25.6-14.848-8.192-13.824-3.072-31.744 10.752-39.936l689.664-397.824c13.824-8.192 31.744-3.072 39.936 10.752 8.192 13.824 3.072 31.744-10.752 39.936L125.44 629.76C120.832 632.32 115.712 633.856 110.592 633.856z" p-id="1951" fill="#1296db"></path><path d="M227.84 836.608c-10.24 0-19.968-5.12-25.6-14.848-8.192-13.824-3.072-31.744 10.752-39.936L902.656 384c13.824-8.192 31.744-3.072 39.936 10.752 8.192 13.824 3.072 31.744-10.752 39.936L242.688 833.024C238.08 835.584 232.96 836.608 227.84 836.608z" p-id="1952" fill="#1296db"></path><path d="M337.408 573.44l7.168 11.776 44.032-25.6c6.656-3.584 8.192-8.192 4.096-14.848l-10.752-18.432-82.944 47.616-9.216-16.384 107.52-61.952 22.016 38.4c9.728 15.36 7.168 26.624-7.168 33.792l-57.856 33.28 17.408 30.72c3.584 5.632 8.192 7.168 13.824 3.584l52.224-30.208c5.632-2.56 6.656-6.656 3.584-11.264l-4.608-7.68 19.456-11.264 6.656 11.264c8.192 12.8 5.12 22.528-8.704 29.696l-73.728 42.496c-14.336 9.216-25.6 6.144-33.792-9.728L311.296 588.8 337.408 573.44z" p-id="1953" fill="#1296db"></path><path d="M428.032 471.04l22.528-12.8 9.216 15.872 9.728-5.632 8.704 15.36-9.728 5.632 13.824 24.064c1.024-1.024 2.048-2.56 4.096-4.608 2.048-1.536 3.584-3.072 4.096-4.096l8.704 15.36c-2.56 3.584-5.12 6.656-7.68 9.728l19.968 34.304c7.168 12.8 4.608 22.528-7.68 29.696l-13.312 7.68-8.192-14.336 3.584-2.048c3.584-2.048 4.096-5.12 2.048-9.216l-15.872-27.648c-3.584 2.56-7.168 5.12-11.264 8.704l-10.752-18.432c1.536-1.024 3.584-2.048 5.632-4.096 2.56-1.536 4.608-2.56 5.632-4.096l-15.872-27.648-11.264 6.656-8.704-15.36 11.264-6.656L428.032 471.04zM533.504 571.904l-61.44-106.496 19.968-11.776c-0.512-5.632-2.048-10.752-4.608-15.36l26.112-15.36c2.048 5.632 3.072 10.752 4.096 15.872l29.184-16.896 50.176 86.528c8.192 13.312 5.12 23.552-8.192 30.72L533.504 571.904zM504.32 467.456l15.872 27.648 28.672-16.896-15.872-27.648L504.32 467.456zM573.44 520.192l-15.36-26.112-28.672 16.896 19.456 33.28 22.528-12.8C576 528.896 576.512 525.312 573.44 520.192z" p-id="1954" fill="#1296db"></path><path d="M566.272 422.912l-9.728-16.896 125.44-72.192 9.728 16.896-53.76 31.232L696.32 483.328l-25.6 14.848-58.88-101.888L566.272 422.912zM653.824 396.8c16.384-5.632 33.792-8.192 51.2-7.68l14.848 25.6c-19.968-2.56-38.4-2.048-55.296 1.024L653.824 396.8z" p-id="1955" fill="#1296db"></path></svg>