<?xml version="1.0" standalone="no"?><!DOCTYPE svg PUBLIC "-//W3C//DTD SVG 1.1//EN"
        "http://www.w3.org/Graphics/SVG/1.1/DTD/svg11.dtd">
<svg xmlns:xlink="http://www.w3.org/1999/xlink" t="1608557868461" class="icon" viewBox="0 0 1024 1024" version="1.1" xmlns="http://www.w3.org/2000/svg"
     p-id="5648" width="200" height="200">
    <defs>
        <style type="text/css"></style>
    </defs>
    <path d="M693.431677 130.836861H407.409408c-48.520063 0-88.041172 39.052434-88.041172 87.021959v17.414625h-50.752917c-48.520063 0-88.057545 39.059598-88.057545 87.021959V806.143227c0 47.961338 39.537482 87.020936 88.057545 87.020936h381.151883c48.51904 0 88.056522-39.059598 88.056522-87.020936v-17.421788h17.576307c48.521087 0 88.042195-39.051411 88.042195-87.012749V316.16887L693.431677 130.836861z m9.143241 675.304319c0 28.798906-23.693632 52.184523-52.807716 52.184523H268.615319c-29.115108 0-52.825113-23.38664-52.825113-52.184523V322.29438c0-28.791743 23.708981-52.17736 52.825113-52.177359h50.752917V701.786461c0 47.961338 39.440267 87.012749 88.041172 87.012749H702.574918v17.34197z m105.634876-104.434537c0 28.79072-23.710005 52.176336-52.809763 52.176336H407.409408c-29.115108 0-52.824089-23.38664-52.824089-52.176336V217.857796c0-28.79993 23.708981-52.17736 52.824089-52.177359h269.077342l131.723044 162.658613v373.367593zM685.322999 516.139274H477.487463c-6.927783 0-12.656251 5.63944-12.656251 12.647041v1.261736c0 6.927783 5.64865 12.655228 12.656251 12.655228h207.835536c6.927783 0 12.639878-5.647627 12.639878-12.655228v-1.261736c-0.001023-6.92676-5.713119-12.647041-12.639878-12.647041z m-220.491787-61.961191v1.26276c0 6.92676 5.64865 12.656251 12.656251 12.656251h207.835536c6.927783 0 12.639878-5.64865 12.639878-12.656251v-1.26276c0-6.92676-5.64865-12.656251-12.639878-12.656251H477.487463c-6.927783 0.081864-12.656251 5.729491-12.656251 12.656251z"
          p-id="5649"></path>
</svg>