<?xml version="1.0" standalone="no"?><!DOCTYPE svg PUBLIC "-//W3C//DTD SVG 1.1//EN" "http://www.w3.org/Graphics/SVG/1.1/DTD/svg11.dtd"><svg t="1608821133623" class="icon" viewBox="0 0 1024 1024" version="1.1" xmlns="http://www.w3.org/2000/svg" p-id="2474" xmlns:xlink="http://www.w3.org/1999/xlink" width="200" height="200"><defs><style type="text/css"></style></defs><path d="M860.16 529.59232V696.32a163.84 163.84 0 0 1-163.84 163.84H327.68a163.84 163.84 0 0 1-163.84-163.84v-166.72768A81.73568 81.73568 0 0 1 102.4 450.56v-81.92a81.92 81.92 0 0 1 81.92-81.92h225.28V143.36a102.4 102.4 0 0 1 204.8 0v143.36h225.28a81.92 81.92 0 0 1 81.92 81.92v81.92a81.73568 81.73568 0 0 1-61.44 79.03232zM245.76 696.32a81.73568 81.73568 0 0 0 61.44 79.03232V655.36a40.96 40.96 0 0 1 81.92 0v122.88h81.92v-122.88a40.96 40.96 0 0 1 81.92 0v122.88h81.92v-122.88a40.96 40.96 0 0 1 81.92 0v119.99232A81.73568 81.73568 0 0 0 778.24 696.32v-163.84H245.76v163.84zM532.48 143.36a20.48 20.48 0 0 0-40.96 0v143.36h40.96V143.36z m307.2 225.28H184.32v81.92h655.36v-81.92zM286.72 921.6h245.76a40.96 40.96 0 0 1 0 81.92H286.72a40.96 40.96 0 0 1 0-81.92z m389.12 0a40.96 40.96 0 1 1-40.96 40.96 40.96 40.96 0 0 1 40.96-40.96z" p-id="2475"></path></svg>