<?xml version="1.0" standalone="no"?><!DOCTYPE svg PUBLIC "-//W3C//DTD SVG 1.1//EN"
        "http://www.w3.org/Graphics/SVG/1.1/DTD/svg11.dtd">
<svg xmlns:xlink="http://www.w3.org/1999/xlink" t="1608557883881" class="icon" viewBox="0 0 1024 1024" version="1.1" xmlns="http://www.w3.org/2000/svg"
     p-id="7768" width="200" height="200">
    <defs>
        <style type="text/css"></style>
    </defs>
    <path d="M942.403316 394.301186c-6.276668-4.921991-15.353001-3.883406-20.274992 2.393262l-59.741236 75.726419c-3.83825-37.885787-13.27583-74.687833-28.177272-109.909424-19.326719-45.742911-47.007276-86.789611-82.274022-122.056357s-76.313445-62.947303-122.056357-82.274022c-47.368523-20.004057-97.627023-30.164131-149.465979-30.164131s-102.097456 10.160074-149.465979 30.164131c-45.742911 19.326719-86.789611 47.007276-122.056357 82.274022-35.266746 35.266746-62.947303 76.313445-82.274022 122.056357-20.004057 47.368523-30.164131 97.627023-30.164131 149.465979s10.160074 102.097456 30.164131 149.465979c19.326719 45.742911 47.007276 86.789611 82.274022 122.056357 35.266746 35.266746 76.313445 62.947303 122.056357 82.274022 47.368523 20.004057 97.627023 30.164131 149.465979 30.164131 72.475195 0 143.098999-20.320148 204.149755-58.70265 59.425144-37.343917 107.471006-90.176302 138.989813-152.762358 3.567315-7.13463 0.722494-15.80456-6.412136-19.41703-7.13463-3.612471-15.80456-0.722494-19.41703 6.412136-29.170702 57.889844-73.604092 106.748512-128.558804 141.292764-56.444856 35.492525-121.740265 54.277374-188.751599 54.277374-47.95555 0-94.420955-9.392424-138.222163-27.906337-42.265908-17.88173-80.242007-43.485117-112.889712-76.087666-32.602549-32.602549-58.205936-70.578648-76.087666-112.889712-18.513913-43.756052-27.906337-90.266614-27.906337-138.222163 0-47.95555 9.392424-94.420955 27.906337-138.222163 17.88173-42.265908 43.485117-80.242007 76.087666-112.889712 32.602549-32.602549 70.578648-58.205936 112.889712-76.087666 43.756052-18.513913 90.266614-27.906337 138.222163-27.906337 47.95555 0 94.420955 9.392424 138.222163 27.906337 42.265908 17.88173 80.242007 43.485117 112.889712 76.087666 32.602549 32.602549 58.205936 70.578648 76.087666 112.889712 13.320986 31.473652 21.900604 64.392292 25.693698 98.214049l-69.856154-76.132822c-5.37355-5.870265-14.540195-6.276668-20.41046-0.857962-5.870265 5.37355-6.276668 14.540195-0.857962 20.41046l95.414385 103.994003c1.038585 1.715924 2.393262 3.206068 3.973718 4.334965l9.256956 10.114918 8.534462-10.837412c1.444988-1.219209 2.619041-2.709353 3.477003-4.425277l82.003087-103.994003C949.718569 408.299511 948.679984 399.223178 942.403316 394.301186z"
          p-id="7769"></path>
    <path d="M480.413459 745.388191c7.992592 0 14.449883-6.457292 14.449883-14.449883l0-161.658068 150.865811 0c7.992592 0 14.449883-6.457292 14.449883-14.449883s-6.457292-14.449883-14.449883-14.449883l-150.865811 0L494.863342 438.14755l127.83631 0c7.992592 0 14.449883-6.457292 14.449883-14.449883s-6.457292-14.449883-14.449883-14.449883l-107.380694 0L589.46492 335.056665c5.644486-5.644486 5.644486-14.81113 0-20.455616-5.644486-5.644486-14.81113-5.644486-20.455616 0l-88.641002 88.641002L391.41121 314.284958c-5.644486-5.644486-14.81113-5.644486-20.455616 0-5.644486 5.644486-5.644486 14.81113 0 20.455616l74.552366 74.552366L338.127266 409.29294c-7.992592 0-14.449883 6.457292-14.449883 14.449883s6.457292 14.449883 14.449883 14.449883l127.83631 0 0 102.232923L315.097764 540.425629c-7.992592 0-14.449883 6.457292-14.449883 14.449883s6.457292 14.449883 14.449883 14.449883l150.865811 0 0 161.658068C465.963575 738.930899 472.420867 745.388191 480.413459 745.388191z"
          p-id="7770"></path>
</svg>